# xmcd
#
# Track frame offsets:
#	183
#	9480
#	21313
#	35083
#	45185
#	56390
#	67215
#	78593
#	90293
#	100463
#	108633
#	120318
#
# Disc length: 1721 seconds
#
# Revision: 2
# Processed by: cddbd v1.5.2PL0 Copyright (c) Steve Scherf et al.
# Submitted via: EasyCDDAExtractor 11.1.0.1
#
DISCID=9406b70c
DTITLE=Various Artist - Oh, What A Dream
DYEAR=1900
DGENRE=Country
TTITLE0=Johnny Cash - Oh, What A Dream
TTITLE1=Jack Scott - My True Love
TTITLE2=Johnny Cash - Don't Take Your Guns To Town
TTITLE3=George jones - Why Baby Why
TTITLE4=Johnny Cash - Seasons Of My Heart
TTITLE5=Jim Lowe - Four Walls
TTITLE6=Frankie Miller - Blackland Farmer
TTITLE7=Johnny Cash - I Still Miss Someone
TTITLE8=Ferlin Husky - Gone
TTITLE9=Johnny Cash - Five Feet High And Rising
TTITLE10=Johnny Cash - I'm In Love Again
TTITLE11=Johnny Cash - Pickin' Time
EXTD=
EXTT0=
EXTT1=
EXTT2=
EXTT3=
EXTT4=
EXTT5=
EXTT6=
EXTT7=
EXTT8=
EXTT9=
EXTT10=
EXTT11=
PLAYORDER=
